<svg width="12" height="13" viewBox="0 0 12 13" fill="none" xmlns="http://www.w3.org/2000/svg">
<path d="M6.18149 12.7183L10.7214 8.17842C11.097 7.80282 11.0969 7.19419 10.7214 6.81872C10.3459 6.44326 9.7373 6.44313 9.36171 6.81872L6.46299 9.71745L6.46273 0.961413C6.46273 0.430457 6.03228 0 5.50119 0C5.23584 0 4.99536 0.107677 4.82141 0.281629C4.64746 0.455581 4.53991 0.696064 4.53978 0.961542L4.54004 9.71758L1.64131 6.81885C1.26585 6.44339 0.657209 6.44326 0.281617 6.81885C-0.0939751 7.19444 -0.0938463 7.80308 0.281617 8.17855L4.82154 12.7185C5.19739 13.0939 5.80602 13.0938 6.18149 12.7183Z" fill="#EE423D"/>
</svg>
