<svg width="91" height="65" viewBox="0 0 91 65" fill="none" xmlns="http://www.w3.org/2000/svg">
<path d="M8.82232 31.2619C13.7192 35.6831 20.1577 39.0064 22.1669 40.4791C24.2754 42.0259 26.0449 44.2322 26.6462 47.6909C27.1815 43.7917 27.3011 39.6884 26.4015 37.173C25.2912 34.0676 23.636 32.3403 21.2587 30.8051C19.4813 29.6566 17.3312 28.23 15.13 26.5861C16.2822 25.6794 17.4183 24.7201 18.4939 23.6856C19.3926 24.25 20.2749 24.7814 21.1272 25.2811C24.2072 27.0863 25.9158 29.095 26.6436 32.0943C27.6489 26.523 26.6398 23.7765 25.7627 22.105C24.8597 20.3837 23.6425 19.1648 22.7054 18.3978C23.665 15.9775 22.5913 12.7316 20.4749 11.7171C20.8904 13.0584 19.9729 14.3961 18.6482 15.689C17.6807 15.0764 16.6795 14.4442 15.6849 13.7954C16.4606 13.0472 17.192 12.2463 17.8309 11.3818C19.5524 9.05363 18.5093 6.21422 16.4029 5.42773C16.8615 7.06348 14.9398 8.44673 13.9529 9.15947C13.1997 9.70331 12.3427 10.23 11.4374 10.7851C10.7435 10.2308 10.0984 9.66897 9.52529 9.10036C9.44325 9.01901 9.36647 8.93737 9.28754 8.85574C9.32701 8.83125 9.36504 8.80648 9.40522 8.78227C11.4147 7.56651 13.2483 5.99409 14.3586 4.61056C15.7148 2.92076 14.6229 0.313019 13.3248 0C13.5221 1.34835 12.2961 2.11569 11.4252 2.63448C10.145 3.39648 8.50228 4.28177 7.1157 5.53075C6.98534 5.64842 6.85666 5.76777 6.733 5.89107C6.00299 6.61872 5.433 7.71035 5.23615 8.97396C5.04815 10.1799 5.2206 11.5904 5.91401 12.831C5.99103 12.9557 6.07212 13.0798 6.15631 13.2028C6.34264 13.4747 6.54499 13.7467 6.76074 14.0158C6.0757 14.5968 5.40956 15.2335 4.78599 15.9533C4.7848 15.9541 4.7836 15.9555 4.78265 15.9567C3.65439 17.26 2.86363 19.0742 2.83134 20.7668C2.80694 22.0602 2.97389 23.2808 3.96821 25.2842C4.18084 25.7084 4.4229 26.1267 4.68577 26.5402C3.63932 27.5167 2.69931 28.5208 1.93868 29.5522C1.92074 29.5772 1.90304 29.6023 1.88463 29.6273C-0.584288 33.6284 -0.426423 37.0125 1.19887 39.9561C3.92826 44.898 10.7743 48.6325 16.2731 51.8767C18.974 53.4711 21.4049 55.2009 23.3679 57.9232C24.6839 59.747 25.8466 61.9465 26.6465 64.8366C27.2521 60.8853 27.215 55.6957 26.3752 52.8904C25.5809 50.2345 23.9625 47.3892 20.6129 44.8808C16.3015 41.6535 9.5461 38.7184 5.62531 34.275C5.56695 34.2089 5.5093 34.1447 5.45118 34.08C5.50021 34.0329 5.54805 33.9862 5.59756 33.9389C6.54236 33.0351 7.63929 32.1537 8.82232 31.2619ZM7.78328 19.6833C8.56758 19.1386 9.51979 18.523 10.5423 17.8305C11.4022 18.5911 12.281 19.312 13.167 19.9961C12.1279 20.7361 11.0432 21.5015 9.96086 22.2908C9.26434 21.636 8.58791 20.9636 7.94856 20.2714C7.817 20.1287 7.68712 19.9876 7.55868 19.8472C7.63378 19.7928 7.70626 19.7368 7.78328 19.6833Z" fill="#ABB0B8"/>
<path d="M36.3296 40.0586H42.1472V41.7701H46.0606V36.6272H44.9696V25.3538H34.5285V29.1319C34.5285 32.4198 34.2688 34.6467 33.4029 36.627H32.4155V41.7698H36.3294V40.0586H36.3296ZM38.4424 30.3784V28.7849H40.8831V36.6272H37.4203C38.2166 35.0965 38.4424 32.8094 38.4424 30.3784Z" fill="#ABB0B8"/>
<path d="M59.9143 35.6273C59.9143 34.0335 59.1867 32.6655 57.836 32.257C58.6334 31.6651 59.4641 30.5622 59.4641 29.0508C59.4641 26.1304 57.2306 25.354 54.4256 25.354H48.4688V40.0586H54.5469C57.7846 40.0586 59.9143 38.9146 59.9143 35.6273ZM52.5552 28.7848H53.9929C54.8583 28.7848 55.6548 28.8057 55.6548 29.9488C55.6548 30.8068 55.0662 31.2358 54.2527 31.2358H52.5552V28.7848ZM52.5552 36.6275V33.9108H53.8544C55.1527 33.9108 56.1057 33.9933 56.1057 35.2803C56.1057 36.382 55.3431 36.6272 54.3388 36.6272H52.5552V36.6275Z" fill="#ABB0B8"/>
<path d="M66.4059 38.0366H67.4102V40.0588H71.4965V38.0366H72.5014C76.0847 38.0366 77.7126 35.7292 77.7126 32.5638C77.7126 29.5412 76.0847 27.0491 72.449 27.0491H71.4965V25.3542H67.4102V27.0491H66.4578C62.8221 27.0491 61.1946 29.5412 61.1946 32.5638C61.1946 35.7289 62.8221 38.0366 66.4059 38.0366ZM71.4965 30.4802H72.0333C73.2974 30.4802 73.7992 31.1538 73.7992 32.5224C73.7992 33.7892 73.3321 34.6058 72.2756 34.6058H71.4965V30.4802ZM66.8567 30.4802H67.4102V34.6058H66.6312C65.5754 34.6058 65.1073 33.7892 65.1073 32.5224C65.1073 31.1538 65.5926 30.4802 66.8567 30.4802Z" fill="#ABB0B8"/>
<path d="M81.1154 36.8524C80.6523 36.9284 80.2246 36.8062 79.4917 36.6489V40.0206C80.587 40.3868 81.5155 40.4895 82.1888 40.4468C83.761 40.3468 84.8034 39.4666 85.8599 36.8318L90.466 25.354H86.0675L84.0935 31.1539L82.1027 25.354H77.4964L82.0853 36.0352C81.8427 36.6275 81.5182 36.7857 81.1154 36.8524Z" fill="#ABB0B8"/>
<path d="M33.2275 48.0316H34.8169V48.7286H35.8857V47.0946H35.5881V44.0159H32.7361V45.0468C32.7361 45.9449 32.6653 46.5535 32.428 47.0946H32.1587V48.7286H33.2277V48.0316H33.2275ZM33.8045 45.3875V44.9528H34.4714V47.0946H33.5253C33.7435 46.6766 33.8045 46.0519 33.8045 45.3875Z" fill="#ABB0B8"/>
<path d="M38.5864 48.0316H39.6983L38.4778 44.0156H37.3425L36.1225 48.0316H37.2147L37.3425 47.5023H38.4539L38.5864 48.0316ZM37.5556 46.6645L37.9008 45.2262L38.2601 46.6645H37.5556Z" fill="#ABB0B8"/>
<path d="M43.5467 48.0316V44.0156H40.5629V46.0848C40.5629 47.0277 40.4347 47.1338 40.213 47.1338C40.0845 47.1338 40.0233 47.1225 39.957 47.0944V48.0313C40.1795 48.0927 40.3306 48.1152 40.5629 48.1152C41.2012 48.1152 41.6313 47.7138 41.6313 46.0955V44.9523H42.431V48.031H43.5467V48.0316Z" fill="#ABB0B8"/>
<path d="M45.2001 45.4156V44.0159H44.0836V48.0318H45.7154C46.5997 48.0318 47.1344 47.607 47.1344 46.7486C47.1344 45.8731 46.5907 45.4156 45.7295 45.4156H45.2001V45.4156ZM46.0936 46.7267C46.0936 47.0279 45.8854 47.0949 45.6113 47.0949H45.1998V46.3525H45.4788C45.8335 46.3525 46.0936 46.3751 46.0936 46.7267Z" fill="#ABB0B8"/>
<path d="M49.7368 48.0316H50.853V44.0159H49.7368V45.4156H48.6818V44.0159H47.5656V48.0316H48.6818V46.3525H49.7368V48.0316Z" fill="#ABB0B8"/>
<path d="M54.2909 44.9528V44.0159H51.5143V48.0316H54.3572V47.0946H52.6307V46.464H54.0352V45.5268H52.6307V44.9528H54.2909Z" fill="#ABB0B8"/>
<path d="M58.0272 46.821C58.0272 46.3863 57.8286 46.013 57.4595 45.901C57.6767 45.7388 57.9037 45.4379 57.9037 45.0249C57.9037 44.2273 57.294 44.0159 56.5275 44.0159H54.9006V48.0318H56.561C57.4451 48.0316 58.0272 47.7196 58.0272 46.821ZM56.017 44.9528H56.4098C56.6462 44.9528 56.8638 44.9584 56.8638 45.2704C56.8638 45.5049 56.7031 45.6214 56.4806 45.6214H56.017V44.9528V44.9528ZM56.5041 47.0946H56.017V46.3523H56.3713C56.726 46.3523 56.9861 46.3748 56.9861 46.7264C56.9861 47.0276 56.7789 47.0946 56.5041 47.0946Z" fill="#ABB0B8"/>
<path d="M58.4245 45.9903C58.4245 47.3568 59.1383 48.1383 60.2074 48.1383C61.2148 48.1383 61.9948 47.3689 61.9948 46.0013C61.9948 44.9408 61.4226 43.9087 60.2074 43.9087C59.1479 43.9087 58.4245 44.7293 58.4245 45.9903ZM60.1976 44.8912C60.6945 44.8912 60.8789 45.4548 60.8789 46.001C60.8789 46.6643 60.6897 47.1564 60.2074 47.1564C59.673 47.1564 59.5402 46.5139 59.5402 46.001C59.5402 45.494 59.6916 44.8912 60.1976 44.8912Z" fill="#ABB0B8"/>
<path d="M64.2505 44.8912C64.6004 44.8912 64.8224 45.1308 64.8559 45.5494H65.9159C65.8255 44.5176 65.2439 43.9087 64.2036 43.9087C63.2529 43.9087 62.5058 44.7184 62.5058 46.0184C62.5058 47.3236 63.1869 48.1381 64.3122 48.1381C65.2104 48.1381 65.8396 47.5134 65.9398 46.4756H64.866C64.8227 46.8599 64.6528 47.1567 64.2938 47.1567C63.7268 47.1567 63.622 46.6265 63.622 46.0624C63.6218 45.2873 63.8577 44.8912 64.2505 44.8912Z" fill="#ABB0B8"/>
<path d="M68.3505 48.0316V44.9528H69.353V44.0159H66.2312V44.9528H67.234V48.0316H68.3505Z" fill="#ABB0B8"/>
<path d="M73.172 46.0013C73.172 44.9408 72.5998 43.9087 71.3841 43.9087C70.3239 43.9087 69.6007 44.7293 69.6007 45.9903C69.6007 47.3568 70.315 48.1383 71.3841 48.1383C72.3917 48.1383 73.172 47.3686 73.172 46.0013ZM71.3843 47.1567C70.8497 47.1567 70.7171 46.5142 70.7171 46.0013C70.7171 45.494 70.8686 44.8915 71.3745 44.8915C71.8711 44.8915 72.0563 45.4551 72.0563 46.0013C72.056 46.6645 71.8666 47.1567 71.3843 47.1567Z" fill="#ABB0B8"/>
<path d="M73.5763 44.0159V45.2594C73.5763 46.1296 74.1911 46.4976 74.6925 46.4976C75.2841 46.4976 75.4259 46.4641 75.624 46.408V48.0316H76.7399V44.0156H75.624V45.4427C75.5245 45.4827 75.3355 45.5156 75.1176 45.5156C74.8484 45.5156 74.6925 45.3709 74.6925 45.0528V44.0156H73.5763V44.0159Z" fill="#ABB0B8"/>
<path d="M80.6895 48.0316V44.0159H79.5726V45.4156H78.5181V44.0159H77.4024V48.0316H78.5181V46.3525H79.5726V48.0316H80.6895Z" fill="#ABB0B8"/>
<path d="M81.3511 44.0159V48.0318H82.9833C83.8674 48.0318 84.4026 47.607 84.4026 46.7486C84.4026 45.8731 83.8588 45.4156 82.9976 45.4156H82.4678V44.0159H81.3511ZM82.7467 46.3525C83.1012 46.3525 83.362 46.3751 83.362 46.7267C83.362 47.0279 83.1534 47.0949 82.879 47.0949H82.4675V46.3525H82.7467Z" fill="#ABB0B8"/>
<path d="M86.0006 44.0159H84.8851V48.0318H86.0006V44.0159Z" fill="#ABB0B8"/>
<path d="M88.3636 43.2119C88.1469 43.2119 87.8916 43.1787 87.8577 42.8662H87.484C87.5218 43.4853 87.8388 43.7192 88.3356 43.7192C88.7899 43.7192 89.1827 43.4408 89.2018 42.8662H88.8325C88.7992 43.1058 88.6569 43.2119 88.3636 43.2119Z" fill="#ABB0B8"/>
<path d="M87.6732 46.319L87.7302 45.2929V44.0159H86.6613V48.0316H87.7065L88.9363 45.7278L88.8794 46.7543V48.0316H89.9484V44.0159H88.9028L87.6732 46.319Z" fill="#ABB0B8"/>
<path d="M36.0877 55.8434V55.1004H36.4566C37.7735 55.1004 38.3711 54.2525 38.3711 53.0895C38.3711 51.9789 37.7737 51.0639 36.4377 51.0639H36.0877V50.442H34.5864V51.0639H34.2369C32.9011 51.0639 32.303 51.9789 32.303 53.0895C32.303 54.2525 32.9011 55.1004 34.2178 55.1004H34.5864V55.8434H36.0877ZM36.0877 52.3243H36.2846C36.7489 52.3243 36.9338 52.572 36.9338 53.0746C36.9338 53.5394 36.7618 53.8398 36.3738 53.8398H36.0877V52.3243ZM34.2998 53.8398C33.9123 53.8398 33.7412 53.5397 33.7412 53.0746C33.7412 52.572 33.919 52.3243 34.3831 52.3243H34.5864V53.8398H34.2998V53.8398Z" fill="#ABB0B8"/>
<path d="M40.4158 53.7353H42.3044V52.4744H40.4158V51.7016H42.6484V50.442H38.9144V55.8434H42.7378V54.5821H40.4158V53.7353Z" fill="#ABB0B8"/>
<path d="M47.9427 50.442H44.1073V51.8291C44.1073 53.038 44.0119 53.8547 43.6937 54.5824H43.3315V56.6195H44.7685V55.8434H46.9054V56.6195H48.3439V54.5824H47.9427V50.442ZM46.4418 54.5821H45.1692C45.4622 54.0202 45.5443 53.1793 45.5443 52.2869V51.7013H46.4418V54.5821V54.5821Z" fill="#ABB0B8"/>
<path d="M52.8405 54.5821H50.5189V53.7353H52.4085V52.4744H50.5189V51.7016H52.7518V50.442H49.0178V55.8434H52.8405V54.5821Z" fill="#ABB0B8"/>
<path d="M55.008 54.1624H55.7649C57.0815 54.1624 57.6664 53.4276 57.6664 52.2646C57.6664 51.154 57.0306 50.442 55.7134 50.442H53.5071V55.8434H55.008V54.1624V54.1624ZM55.008 51.7016H55.434C55.7522 51.7016 56.2354 51.7691 56.2354 52.2722C56.2354 52.7376 55.9814 52.9023 55.6314 52.9023H55.008V51.7016Z" fill="#ABB0B8"/>
<path d="M60.6335 55.8434H62.1286L60.4875 50.442H58.9611L57.3198 55.8434H58.7893L58.9613 55.1306H60.4555L60.6335 55.8434ZM59.2474 54.0047L59.711 52.0692L60.195 54.0047H59.2474Z" fill="#ABB0B8"/>
<path d="M64.8147 51.7016H65.89V55.8434H67.3913V50.442H63.3775V53.2241C63.3775 54.4929 63.2059 54.6356 62.9069 54.6356C62.7354 54.6356 62.6519 54.6201 62.5629 54.5824V55.8434C62.8624 55.9264 63.0658 55.9549 63.3772 55.9549C64.236 55.9549 64.8144 55.4149 64.8144 53.2401V51.7016H64.8147Z" fill="#ABB0B8"/>
<path d="M72.3835 54.1179C72.3835 52.9391 71.6517 52.3245 70.4944 52.3245H69.782V50.4423H68.2811V55.8436H70.4755C71.6646 55.8433 72.3835 55.273 72.3835 54.1179ZM69.7817 54.5821V53.5844H70.1568C70.6343 53.5844 70.9838 53.6148 70.9838 54.0872C70.9838 54.4929 70.7037 54.5821 70.3353 54.5821H69.7817Z" fill="#ABB0B8"/>
<path d="M77.4967 55.8434V50.442H75.9954V52.3243H74.5771V50.442H73.076V55.8434H74.5771V53.5844H75.9954V55.8434H77.4967Z" fill="#ABB0B8"/>
<path d="M84.6383 50.442H83.1374V55.8434H84.6383V50.442Z" fill="#ABB0B8"/>
<path d="M82.4891 54.1179C82.4891 52.9391 81.7573 52.3245 80.5997 52.3245H79.8868V50.4423H78.3862V55.8436H80.5806C81.77 55.8433 82.4891 55.273 82.4891 54.1179ZM80.4409 54.5821H79.8868V53.5844H80.2624C80.7394 53.5844 81.0894 53.6148 81.0894 54.0872C81.0894 54.4929 80.809 54.5821 80.4409 54.5821Z" fill="#ABB0B8"/>
<path d="M87.7808 50.0437C88.3908 50.0437 88.9193 49.6679 88.9449 48.8962H88.4478C88.4037 49.2192 88.2129 49.361 87.8179 49.361C87.5261 49.361 87.1818 49.316 87.1376 48.8962H86.6345C86.6859 49.7287 87.1122 50.0437 87.7808 50.0437Z" fill="#ABB0B8"/>
<path d="M86.8895 53.5396L86.9658 52.1593V50.442H85.5281V55.8434H86.9326L88.5875 52.7449L88.5109 54.1249V55.8434H89.9484V50.442H88.5427L86.8895 53.5396Z" fill="#ABB0B8"/>
<path d="M34.8048 60.7959L34.0182 58.5045H32.199L34.0115 62.7235C33.9161 62.9577 33.7993 63.0461 33.6283 63.0461C33.4436 63.0461 33.3888 63.0058 33.2931 62.9653V64.2885C33.4781 64.3769 33.7855 64.4658 34.0529 64.4658C34.6672 64.4658 35.0854 64.0784 35.5021 63.0385L37.3218 58.5045H35.5841L34.8048 60.7959Z" fill="#ABB0B8"/>
<path d="M41.0073 60.5298H39.4827V58.5048H37.8685V64.3129H39.4827V61.885H41.0073V64.3129H42.622V58.5048H41.0073V60.5298Z" fill="#ABB0B8"/>
<path d="M45.0421 61.8363L45.1234 60.3524V58.5048H43.5783V64.3129H45.0897L46.868 60.9813L46.7857 62.4658V64.3129H48.3318V58.5048H46.8197L45.0421 61.8363Z" fill="#ABB0B8"/>
<path d="M52.9896 61.2313C53.3044 60.9974 53.6326 60.5619 53.6326 59.9659C53.6326 58.8113 52.7503 58.5048 51.6423 58.5048H49.2898V64.3132H51.6899C52.969 64.3132 53.8106 63.8625 53.8106 62.5624C53.8103 61.9329 53.5228 61.3927 52.9896 61.2313ZM50.9041 59.8592H51.4715C51.8133 59.8592 52.1277 59.8679 52.1277 60.32C52.1277 60.659 51.8954 60.8285 51.5736 60.8285H50.9041V59.8592ZM51.6081 62.9579H50.9041V61.885H51.4172C51.9301 61.885 52.3061 61.9174 52.3061 62.4261C52.3059 62.8605 52.0047 62.9579 51.6081 62.9579Z" fill="#ABB0B8"/>
<path d="M56.2107 62.0461H58.2424V60.6914H56.2107V59.8592H58.6113V58.5048H54.5967V64.3129H58.7074V62.9579H56.2107V62.0461Z" fill="#ABB0B8"/>
<path d="M61.8675 58.5048H59.4939V64.3132H61.108V62.5067H61.922C63.337 62.5067 63.9666 61.7158 63.9666 60.4656C63.9666 59.2708 63.2825 58.5048 61.8675 58.5048ZM61.7778 61.1511H61.1077V59.8592H61.5658C61.9081 59.8592 62.4277 59.9327 62.4277 60.4738C62.4277 60.9732 62.1545 61.1511 61.7778 61.1511Z" fill="#ABB0B8"/>
<path d="M67.0858 63.0464C66.2648 63.0464 66.1143 62.2798 66.1143 61.4653C66.1143 60.3437 66.4564 59.7711 67.0243 59.7711C67.53 59.7711 67.8513 60.1182 67.8996 60.7232H69.4316C69.3017 59.2306 68.4603 58.3519 66.9552 58.3519C65.5806 58.3519 64.5003 59.5208 64.5003 61.4003C64.5003 63.2882 65.4847 64.4661 67.1124 64.4661C68.412 64.4661 69.3215 63.5638 69.4655 62.0624H67.913C67.8511 62.619 67.6056 63.0464 67.0858 63.0464Z" fill="#ABB0B8"/>
<path d="M71.614 61.8363L71.6955 60.3524V58.5048H70.1497V64.3129H71.6616L73.4397 60.9813L73.3579 62.4658V64.3129H74.903V58.5048H73.3918L71.614 61.8363Z" fill="#ABB0B8"/>
<path d="M75.5943 59.8592H77.0442V64.3129H78.6584V59.8592H80.1083V58.5048H75.5943V59.8592Z" fill="#ABB0B8"/>
<path d="M82.413 62.0461H84.4447V60.6914H82.413V59.8592H84.8136V58.5048H80.7988V64.3129H84.9095V62.9579H82.413V62.0461Z" fill="#ABB0B8"/>
<path d="M85.4307 59.8592H86.8814V64.3129H88.4949V59.8592H89.9448V58.5048H85.4307V59.8592Z" fill="#ABB0B8"/>
</svg>
