<svg width="12" height="13" viewBox="0 0 12 13" fill="none" xmlns="http://www.w3.org/2000/svg">
<path d="M4.82157 0.281662L0.281646 4.82158C-0.0939461 5.19718 -0.0938179 5.80581 0.281646 6.18128C0.65711 6.55674 1.26575 6.55687 1.64134 6.18128L4.54006 3.28255L4.54032 12.0386C4.54032 12.5695 4.97078 13 5.50186 13C5.76721 13 6.00769 12.8923 6.18164 12.7184C6.3556 12.5444 6.46314 12.3039 6.46327 12.0385L6.46302 3.28242L9.36174 6.18115C9.7372 6.55661 10.3458 6.55674 10.7214 6.18115C11.097 5.80556 11.0969 5.19692 10.7214 4.82145L6.18151 0.281533C5.80567 -0.0939305 5.19703 -0.0938014 4.82157 0.281662Z" fill="#05C985"/>
</svg>
